HIERARCHY
ROOT Hips
{
	OFFSET 0.00000 0.00000 0.00000
	CHANNELS 6 Xposition Yposition Zposition Zrotation Yrotation Xrotation 
	JOINT LHipJoint
	{
		OFFSET 0 0 0
		CHANNELS 3 Zrotation Yrotation Xrotation
		JOINT LeftUpLeg
		{
			OFFSET 1.55766 -1.60504 1.11378
			CHANNELS 3 Zrotation Yrotation Xrotation
			JOINT LeftLeg
			{
				OFFSET 2.29047 -6.29302 0.00000
				CHANNELS 3 Zrotation Yrotation Xrotation
				JOINT LeftFoot
				{
					OFFSET 2.52265 -6.93093 0.00000
					CHANNELS 3 Zrotation Yrotation Xrotation
					JOINT LeftToeBase
					{
						OFFSET 0.17633 -0.48446 2.02656
						CHANNELS 3 Zrotation Yrotation Xrotation
						End Site
						{
							OFFSET 0.00000 -0.00000 1.04989
						}
					}
				}
			}
		}
	}
	JOINT RHipJoint
	{
		OFFSET 0 0 0
		CHANNELS 3 Zrotation Yrotation Xrotation
		JOINT RightUpLeg
		{
			OFFSET -1.48599 -1.60504 1.11378
			CHANNELS 3 Zrotation Yrotation Xrotation
			JOINT RightLeg
			{
				OFFSET -2.27280 -6.24448 0.00000
				CHANNELS 3 Zrotation Yrotation Xrotation
				JOINT RightFoot
				{
					OFFSET -2.50834 -6.89161 0.00000
					CHANNELS 3 Zrotation Yrotation Xrotation
					JOINT RightToeBase
					{
						OFFSET -0.26967 -0.74090 2.08741
						CHANNELS 3 Zrotation Yrotation Xrotation
						End Site
						{
							OFFSET -0.00000 -0.00000 1.10614
						}
					}
				}
			}
		}
	}
	JOINT LowerBack
	{
		OFFSET 0 0 0
		CHANNELS 3 Zrotation Yrotation Xrotation
		JOINT Spine
		{
			OFFSET 0.06481 2.02437 -0.08472
			CHANNELS 3 Zrotation Yrotation Xrotation
			JOINT Spine1
			{
				OFFSET 0.00015 1.96711 0.18069
				CHANNELS 3 Zrotation Yrotation Xrotation
				JOINT Neck
				{
					OFFSET 0 0 0
					CHANNELS 3 Zrotation Yrotation Xrotation
					JOINT Neck1
					{
						OFFSET -0.29961 1.68293 -0.13041
						CHANNELS 3 Zrotation Yrotation Xrotation
						JOINT Head
						{
							OFFSET 0.59697 1.61501 -0.14669
							CHANNELS 3 Zrotation Yrotation Xrotation
							End Site
							{
								OFFSET 0.22973 1.74906 -0.10148
							}
						}
					}
				}
				JOINT LeftShoulder
				{
					OFFSET 0 0 0
					CHANNELS 3 Zrotation Yrotation Xrotation
					JOINT LeftArm
					{
						OFFSET 3.37968 1.02893 0.31147
						CHANNELS 3 Zrotation Yrotation Xrotation
						JOINT LeftForeArm
						{
							OFFSET 5.19807 -0.00000 -0.00000
							CHANNELS 3 Zrotation Yrotation Xrotation
							JOINT LeftHand
							{
								OFFSET 3.09370 -0.00000 -0.00000
								CHANNELS 3 Zrotation Yrotation Xrotation
								JOINT LeftFingerBase
								{
									OFFSET 0 0 0
									CHANNELS 3 Zrotation Yrotation Xrotation
									JOINT LeftHandIndex1
									{
										OFFSET 0.67263 -0.00000 -0.00000
										CHANNELS 3 Zrotation Yrotation Xrotation
										End Site
										{
											OFFSET 0.54229 -0.00000 -0.00000
										}
									}
								}
								JOINT LThumb
								{
									OFFSET 0 0 0
									CHANNELS 3 Zrotation Yrotation Xrotation
									End Site
									{
										OFFSET 0.55057 -0.00000 0.55057
									}
								}
							}
						}
					}
				}
				JOINT RightShoulder
				{
					OFFSET 0 0 0
					CHANNELS 3 Zrotation Yrotation Xrotation
					JOINT RightArm
					{
						OFFSET -3.38254 0.96355 -0.16120
						CHANNELS 3 Zrotation Yrotation Xrotation
						JOINT RightForeArm
						{
							OFFSET -5.45222 -0.00000 -0.00000
							CHANNELS 3 Zrotation Yrotation Xrotation
							JOINT RightHand
							{
								OFFSET -3.01284 -0.00000 -0.00000
								CHANNELS 3 Zrotation Yrotation Xrotation
								JOINT RightFingerBase
								{
									OFFSET 0 0 0
									CHANNELS 3 Zrotation Yrotation Xrotation
									JOINT RightHandIndex1
									{
										OFFSET -0.62230 -0.00000 -0.00000
										CHANNELS 3 Zrotation Yrotation Xrotation
										End Site
										{
											OFFSET -0.50171 -0.00000 -0.00000
										}
									}
								}
								JOINT RThumb
								{
									OFFSET 0 0 0
									CHANNELS 3 Zrotation Yrotation Xrotation
									End Site
									{
										OFFSET -0.50937 -0.00000 0.50937
									}
								}
							}
						}
					}
				}
			}
		}
	}
}
MOTION
Frames: 16
Frame Time: 0.125
0.00 0.00 0.00 0 0 0 0 0 0 -21 0 0 0 0 0 0 0 0 0 0 0 0 0 0 21 0 0 0 0 0 0 0 0 0 0 0 0 0 0 0 0 0 0 0 0 0 0 -16 0 0 21 0 0 11 0 0 0 -8 0 0 0 0 0 0 0 0 0 0 0 0 0 0 0 0 0 0 0 0 8 0 0 0 0 0 0 0 0 0 0 0 0 0 0 0 0 0
0.00 0.00 0.00 -175.0210 -79.2953 188.7760 0.0000 0.0000 0.0000 -21.8844 8.1243 -33.5462 3.4240 11.3518 33.4756 -0.1203 -22.8558 -15.2281 0.0107 0.6688 1.8379 0.0000 0.0000 0.0000 16.0161 11.8601 -33.8458 -5.8495 -14.2809 44.3748 0.2866 19.2756 -10.9421 -0.6031 4.9710 -13.8260 -5.2330 1.0823 -5.8589 -1.8777 1.2436 -6.9507 1.0158 0.6825 -4.0159 -29.6262 -9.2045 18.9433 43.7868 -20.4787 -6.4743 22.5610 -13.3628 3.8532 -0.0000 -0.0000 0.0000 -83.1425 9.3246 45.1895 15.6273 -25.0126 -3.4869 -0.0000 0.0000 -33.4180 13.9588 -13.0664 -3.2164 -7.1250 0.0000 -0.0000 -9.2090 16.6397 6.2686 -0.0000 -0.0000 0.0000 89.8385 -4.7391 27.0461 -15.0947 24.2779 -3.2648 0.0000 0.0000 25.9428 -8.5879 7.0993 -1.0693 7.1250 -0.0000 -0.0000 13.2700 -22.8440 7.2684
0.00 0.00 0.00 -170.8470 -76.5866 184.1670 0.0000 0.0000 0.0000 -20.7154 8.8738 -33.4658 3.5122 11.4813 33.9210 0.1739 -20.8746 -16.0437 0.0037 0.3924 1.0782 0.0000 0.0000 0.0000 15.6714 8.2952 -39.0586 -7.0108 -15.3410 48.9153 2.4187 26.8266 4.4791 -0.3527 3.8154 -10.5579 -5.1063 1.3995 -4.0501 -1.5089 1.6125 -6.6457 1.2933 0.9002 -4.7351 -29.0626 -9.5404 19.5507 43.7481 -21.1712 -6.2034 22.2519 -13.7879 4.0186 -0.0000 -0.0000 0.0000 -83.1787 8.6578 45.9177 16.1416 -25.7123 -3.7072 -0.0000 0.0000 -34.5490 14.0370 -12.7662 -3.1622 -7.1250 0.0000 -0.0000 -9.1582 16.9384 6.1727 -0.0000 -0.0000 0.0000 89.7675 -4.9261 23.6374 -15.6837 25.0899 -3.5107 0.0000 0.0000 24.4714 -9.1605 6.3328 -1.0190 7.1250 -0.0000 -0.0000 12.9209 -23.5880 6.8400
0.00 0.00 0.00 -171.2310 -73.5496 183.2600 0.0000 0.0000 0.0000 -19.6958 7.4887 -29.6560 3.1477 10.9304 32.0456 0.7914 -14.7639 -17.7050 0.0072 -0.5496 -1.5103 0.0000 0.0000 0.0000 10.1933 7.1902 -40.8332 -6.9152 -15.2601 48.5530 2.6768 28.7638 20.7601 -1.3485 7.3516 -20.7613 -6.2174 1.5993 -2.7213 -1.0724 1.8966 -5.8310 2.3383 1.1144 -4.7089 -28.8710 -9.7168 21.1025 43.3390 -22.0034 -5.5414 21.9220 -14.3161 4.1406 0.0000 -0.0000 0.0000 -81.9858 8.2609 48.4877 18.7114 -29.0585 -4.8899 -0.0000 0.0000 -39.1657 9.1798 -12.5909 -2.0176 -7.1250 0.0000 -0.0000 -12.5041 17.4093 8.3934 0.0000 -0.0000 0.0000 89.4552 -5.2192 17.6180 -15.4848 24.8172 -3.4269 0.0000 0.0000 27.1264 -12.4092 6.2890 -1.3807 7.1250 -0.0000 -0.0000 10.5543 -23.5593 5.5472
0.00 0.00 0.00 -171.1840 -80.7207 183.3060 0.0000 0.0000 0.0000 -12.8564 7.0018 -21.1555 1.5309 7.8117 22.1435 0.4666 -15.5787 -15.3786 1.0529 -6.5247 -18.3146 0.0000 0.0000 0.0000 -6.1421 15.2685 -23.0832 -2.5867 -9.9939 28.9568 -0.0004 -1.6518 1.1988 -1.1495 6.8077 -19.1470 -4.4334 0.9313 -6.5406 -0.9230 1.1540 -6.3496 1.5764 0.6214 -2.9891 -30.1776 -12.6692 31.3831 36.4895 -29.8408 -0.5804 17.0069 -18.2629 5.8218 -0.0000 -0.0000 0.0000 -79.1599 9.9282 37.4360 17.5555 -27.5843 -4.3414 -0.0000 0.0000 -36.5020 13.3414 -13.0892 -3.0742 -7.1250 0.0000 -0.0000 -9.6333 16.6601 6.5613 -0.0000 -0.0000 0.0000 88.1557 -9.5271 6.1788 -13.2082 21.5915 -2.5294 0.0000 0.0000 33.7609 -7.4422 7.2001 -0.9380 7.1250 -0.0000 -0.0000 14.0848 -22.7683 7.7667
0.00 0.00 0.00 -146.9310 -81.5881 158.3980 0.0000 0.0000 0.0000 -5.6499 -7.9144 -30.5892 7.1759 15.4783 49.5366 0.9107 -0.4174 -17.9040 2.1522 -9.1761 -26.3476 0.0000 0.0000 0.0000 18.8872 11.0732 -23.1145 -2.9515 -10.6162 30.9961 -0.7422 13.7263 -16.9381 -1.2590 7.1131 -20.0508 5.0478 3.6285 -0.5218 -1.5569 4.7852 -6.8466 -4.6543 1.9727 -6.3065 -32.3558 -10.4978 23.8936 40.4003 -24.5979 -3.2585 19.8170 -15.3023 5.3046 0.0000 -0.0000 0.0000 -89.1428 16.6585 12.9367 20.7305 -31.5124 -5.9084 -0.0000 0.0000 -40.0126 12.8260 -12.0190 -2.7143 -7.1250 0.0000 -0.0000 -10.0090 17.7726 6.5776 0.0000 -0.0000 0.0000 83.1234 -2.0781 24.6911 -14.7152 23.7478 -3.1103 0.0000 0.0000 24.5938 -9.5532 5.8978 -0.9907 7.1250 -0.0000 -0.0000 12.6723 -24.0107 6.5750
0.00 0.00 0.00 -135.0360 -81.4962 146.0290 0.0000 0.0000 0.0000 -15.1008 -5.8168 -27.9127 3.8835 12.0038 35.7454 1.4074 -4.2996 -21.4325 0.9974 -6.3558 -17.8202 0.0000 0.0000 0.0000 12.1252 11.1629 -38.1462 -7.0930 -15.4097 49.2252 1.9990 27.1399 -3.2881 -3.6357 11.6591 -34.5365 -3.4443 0.4011 2.3749 1.2700 0.2648 -6.4591 3.2538 0.3405 -8.1435 -26.6306 -10.9545 21.8894 43.8667 -22.3133 -8.6440 20.9918 -14.5479 3.0506 0.0000 -0.0000 0.0000 -82.0954 4.1382 46.2525 16.7309 -26.5017 -3.9665 -0.0000 0.0000 -31.3849 14.1505 -14.4576 -3.6017 -7.1250 0.0000 -0.0000 -9.0714 15.2158 6.4552 0.0000 -0.0000 0.0000 89.2666 -7.4323 -11.5795 -11.2914 18.7335 -1.8684 0.0000 0.0000 38.9692 -4.9552 6.2858 -0.5439 7.1250 -0.0000 -0.0000 15.9636 -23.6904 8.5276
0.00 0.00 0.00 -107.5240 -78.8553 117.6140 0.0000 0.0000 0.0000 -4.8808 -7.1791 -14.6580 1.2184 7.0015 19.7198 0.7162 0.1832 -16.0613 1.0539 -6.5277 -18.3234 0.0000 0.0000 0.0000 -4.8441 10.2489 -29.1748 -3.0244 -10.7345 31.3896 -0.6367 2.1113 15.9838 -1.1567 6.8282 -19.2075 -1.3027 1.0231 2.0427 2.9460 1.3404 -6.3486 3.7241 0.7853 -7.9043 -24.6464 -12.2215 24.4873 45.4241 -24.2946 -9.8819 21.3133 -16.0812 3.1093 -0.0000 0.0000 0.0000 -80.3243 7.7791 51.0749 22.3290 -33.3468 -6.7658 -0.0000 0.0000 -40.9129 14.5956 -14.4993 -3.7302 -7.1250 0.0000 -0.0000 -8.7693 15.1374 6.2499 -0.0000 0.0000 0.0000 86.0675 -10.2157 -12.1748 -14.1863 23.0005 -2.9005 0.0000 0.0000 34.0086 -12.4225 5.0147 -1.1031 7.1250 -0.0000 -0.0000 10.6318 -24.8410 5.2685
0.00 0.00 0.00 -144.2250 -81.3936 154.0470 0.0000 0.0000 0.0000 7.9011 -6.2693 -6.4201 1.0791 6.6028 18.5438 -0.1035 5.7876 -3.2080 4.5154 -12.8164 -38.6849 0.0000 0.0000 0.0000 7.3832 8.8881 -15.7376 -1.8649 -8.5788 24.4865 -0.6196 14.7697 -16.3134 -3.1557 10.9429 -32.0875 -0.4477 3.2682 -4.5073 -0.1323 4.0640 -8.2452 0.0895 1.9197 -6.0709 -29.8302 -10.0859 20.7768 39.3879 -23.9910 1.2396 18.8313 -14.6975 6.2630 -0.0000 -0.0000 0.0000 -76.3392 19.7716 15.1932 20.2525 -30.9454 -5.6606 -0.0000 0.0000 -37.3776 17.5096 -12.9492 -4.0438 -7.1250 0.0000 -0.0000 -6.7611 16.4850 4.5970 -0.0000 -0.0000 0.0000 88.6705 -7.3906 6.2603 -14.4929 23.4350 -3.0214 0.0000 0.0000 28.8463 -9.5201 6.3676 -1.0656 7.1250 -0.0000 -0.0000 12.6565 -23.5466 6.7055
0.00 0.00 0.00 -69.3068 -83.8051 78.7998 0.0000 0.0000 0.0000 -12.5901 -8.6962 -25.6892 3.8612 11.9734 35.6379 1.2508 -8.1340 -20.0068 0.9546 -6.2217 -17.4290 0.0000 0.0000 0.0000 17.6012 8.4039 -30.0309 -7.7635 -15.9425 51.7063 -1.4483 7.7257 -21.5286 -1.6253 8.0376 -22.8283 -2.8858 -0.7987 1.6455 1.5984 -1.2748 -6.5261 3.4099 -0.4529 -7.6577 -29.5236 -11.5559 23.0694 39.4410 -25.2303 -2.7204 18.4655 -15.4412 5.1917 0.0000 -0.0000 0.0000 -82.7418 7.8346 42.2552 17.3271 -27.2870 -4.2362 -0.0000 0.0000 -34.0910 13.7395 -12.2757 -2.9759 -7.1250 0.0000 -0.0000 -9.3705 17.4554 6.2123 0.0000 -0.0000 0.0000 87.8110 -7.6718 -8.9071 -12.4865 20.5302 -2.2700 0.0000 0.0000 36.4989 -6.1360 6.2064 -0.6659 7.1250 -0.0000 -0.0000 15.1228 -23.7559 8.0217
0.00 0.00 0.00 -72.0482 -82.8214 83.0726 0.0000 0.0000 0.0000 -6.7796 2.2928 -25.7358 3.9289 12.0652 35.9630 1.1669 -8.8936 -19.3827 2.8795 -10.4974 -30.6030 0.0000 0.0000 0.0000 -11.2585 25.3074 -16.3607 -3.1909 -10.9978 32.2724 -0.9740 -4.2658 17.7107 -0.6411 5.1226 -14.2587 0.3372 -1.5954 2.6314 2.4029 -2.1434 -7.6813 2.6097 -1.0547 -9.5097 -27.6176 -10.8952 23.5854 45.0969 -21.9307 -12.9999 23.0572 -14.7252 1.8473 0.0000 -0.0000 0.0000 -81.1840 10.4289 35.9609 19.4500 -29.9740 -5.2538 -0.0000 0.0000 -41.4324 19.0908 -13.8432 -4.7339 -7.1250 0.0000 -0.0000 -5.6929 15.4136 3.9951 0.0000 -0.0000 0.0000 82.1001 -10.3625 -1.3574 -14.5882 23.5693 -3.0594 0.0000 0.0000 32.1712 -5.8322 5.5099 -0.5619 7.1250 -0.0000 -0.0000 15.4196 -24.4342 7.9388
0.00 0.00 0.00 -40.7638 -81.4274 53.2286 0.0000 0.0000 0.0000 -18.4374 -6.6190 -27.0052 4.0620 12.2424 36.5950 1.4785 -7.3449 -21.7573 0.1260 -2.2879 -6.3020 0.0000 0.0000 0.0000 28.4899 -6.6127 -28.9066 -2.9983 -10.6924 31.2492 0.8745 28.0841 -14.3377 -0.0044 0.4262 -1.1711 2.7227 0.5189 -5.7500 -0.2763 0.3316 -8.2754 -1.7948 -0.1257 -5.3573 -29.7609 -8.5600 12.7869 42.1509 -17.6952 -3.9188 20.8781 -10.9517 4.1805 0.0000 0.0000 0.0000 -84.0838 12.6004 27.4552 19.9441 -30.5750 -5.5029 -0.0000 0.0000 -35.8130 13.5465 -13.0392 -3.1115 -7.1250 0.0000 -0.0000 -9.4930 16.6963 6.4554 0.0000 0.0000 0.0000 91.5175 -8.3541 -12.4034 -12.7525 20.9234 -2.3641 0.0000 0.0000 28.5859 -11.0886 3.6059 -0.7062 7.1250 -0.0000 -0.0000 11.7424 -26.2688 5.4406
0.00 0.00 0.00 -173.2050 -88.7623 177.0170 0.0000 0.0000 0.0000 4.8976 -10.3602 -15.2990 4.8492 13.2119 40.1670 -0.8398 16.0652 -4.1647 0.1151 -2.1875 -6.0241 0.0000 0.0000 0.0000 14.1879 10.6732 -20.2994 -5.5247 -13.9514 43.0431 -1.9211 11.2209 -24.9656 -1.2763 7.1597 -20.1895 -0.9626 2.9837 4.2507 -3.1865 3.5425 -6.3984 -3.2524 1.6129 -8.9946 -30.0838 -7.4445 9.1763 41.3677 -15.5231 -1.2118 20.7753 -9.4048 4.5831 0.0000 -0.0000 0.0000 -84.6460 16.1648 13.9454 17.4111 -27.3966 -4.2748 -0.0000 0.0000 -34.3884 21.5023 -14.6121 -5.6757 -7.1250 0.0000 -0.0000 -4.0789 14.3546 2.9479 0.0000 -0.0000 0.0000 84.3902 -2.7448 5.8525 -18.9388 29.3426 -5.0008 0.0000 0.0000 20.4244 -15.3853 2.4378 -0.6706 7.1250 -0.0000 -0.0000 8.5901 -27.4211 3.7076
0.00 0.00 0.00 196.8280 -85.0774 -188.8850 0.0000 0.0000 0.0000 13.7413 -12.7370 -20.0685 4.6119 12.9329 39.1178 0.3271 11.3836 12.1089 0.2130 -2.9714 -8.1991 0.0000 0.0000 0.0000 15.3456 -0.8738 -26.1950 -4.8540 -13.2175 40.1881 -1.5393 11.2931 -22.4250 -1.4424 7.5926 -21.4833 2.2129 2.8481 6.6840 -0.6137 3.9128 -8.1883 -2.5606 1.5614 -12.4295 -27.8867 -8.6879 8.6571 42.5326 -15.7867 -6.5440 20.5603 -9.6736 3.3722 -0.0000 -0.0000 0.0000 -86.5938 13.6041 23.6833 18.1124 -28.3008 -4.6024 -0.0000 0.0000 -32.8592 24.3852 -17.2011 -7.6353 -7.1250 0.0000 -0.0000 -2.3222 11.2190 1.8276 -0.0000 -0.0000 0.0000 84.6145 -7.6891 -5.4909 -16.2604 25.8724 -3.7589 0.0000 0.0000 23.6258 -13.3486 2.1788 -0.5168 7.1250 -0.0000 -0.0000 10.1643 -27.6929 4.3396
0.00 0.00 0.00 502.6850 -81.9328 -495.7730 0.0000 0.0000 0.0000 6.1071 -8.2211 -9.0253 1.4883 7.7072 21.8282 -0.0101 14.0399 9.7352 0.4580 -4.3414 -12.0390 0.0000 0.0000 0.0000 1.1025 7.8336 -21.7052 -5.2333 -13.6419 41.8213 -1.8843 13.1908 -24.9564 -2.8497 10.4477 -30.4391 1.1546 1.5082 1.0924 -3.1044 1.6022 -8.0832 -4.0646 0.4509 -9.0076 -32.9640 -7.3931 12.0213 39.0725 -16.6357 -0.2834 20.0608 -10.0543 4.6900 -0.0000 -0.0000 0.0000 -84.0723 16.3156 22.5194 18.8828 -29.2728 -4.9734 -0.0000 0.0000 -18.2894 16.9800 -20.1000 -5.9905 -7.1250 0.0000 -0.0000 -7.3439 9.1794 6.1303 -0.0000 -0.0000 0.0000 85.7600 -3.7044 -1.7810 -10.3862 17.3414 -1.5881 0.0000 0.0000 36.0413 -15.1904 0.2111 -0.0573 7.1250 -0.0000 -0.0000 8.9208 -29.7023 3.3653
0.00 0.00 0.00 604.6130 -85.6891 -593.9290 0.0000 0.0000 0.0000 5.6664 -5.2504 -11.3818 1.3078 7.2441 20.4406 0.4483 -6.1974 -12.0367 6.1734 -14.5943 -45.6738 0.0000 0.0000 0.0000 -3.0792 4.8768 -15.4109 -1.9628 -8.7881 25.1346 0.0012 4.3493 -2.9998 -4.0095 12.1730 -36.3467 3.3745 1.8053 -2.6167 1.7142 2.2329 -9.4860 -0.1530 0.7597 -8.4355 -29.1072 -7.9689 16.0493 38.8265 -18.5023 0.6097 19.1027 -11.3359 4.4529 -0.0000 -0.0000 0.0000 -89.8054 11.6343 46.2443 17.5398 -27.5639 -4.3342 -0.0000 0.0000 -28.9322 8.6041 -13.1814 -1.9761 -7.1250 0.0000 -0.0000 -12.8711 16.8576 8.8124 -0.0000 -0.0000 0.0000 78.8218 -9.9582 -28.8346 -15.8879 25.3684 -3.5978 0.0000 0.0000 25.9405 -11.0880 1.5821 -0.3100 7.1250 -0.0000 -0.0000 11.9476 -28.2872 4.9584
